<svg id="Capa_1" enable-background="new 0 0 512 512" height="512" viewBox="0 0 512 512" width="512" xmlns="http://www.w3.org/2000/svg"><g><path d="m256.535 359.176h-226.095c-7.019 0-12.709-5.69-12.709-12.709v-326.258c0-7.019 5.69-12.709 12.709-12.709h226.095c7.019 0 12.709 5.69 12.709 12.709v326.258c0 7.019-5.69 12.709-12.709 12.709z" fill="#365e7d"/><path d="m256.535 7.5h-19.109c7.019 0 12.709 5.69 12.709 12.709v326.258c0 7.019-5.69 12.709-12.709 12.709h19.109c7.019 0 12.709-5.69 12.709-12.709v-326.258c0-7.019-5.69-12.709-12.709-12.709z" fill="#2b4d66"/><path d="m47.73 37.5h191.514v271.546h-191.514z" fill="#bed8fb"/><path d="m217.465 37.5h21.779v271.546h-21.779z" fill="#9dc6fb"/><g><path d="m190.266 195.02h-93.558c-7.645 0-13.843-6.198-13.843-13.843v-46.623c0-26.61 21.572-48.182 48.182-48.182h24.879c26.61 0 48.182 21.572 48.182 48.182v46.623c.001 7.646-6.197 13.843-13.842 13.843z" fill="#365e7d"/><path d="m155.927 86.372h-22.812c26.61 0 48.182 21.572 48.182 48.182v46.623c0 7.645-6.197 13.843-13.843 13.843h22.812c7.645 0 13.843-6.197 13.843-13.843v-46.623c0-26.61-21.572-48.182-48.182-48.182z" fill="#2b4d66"/><path d="m207.796 309.046v-46.318c0-28.124-22.799-50.922-50.923-50.922h-26.773c-28.124 0-50.922 22.799-50.922 50.922v46.318z" fill="#ffe07d"/><path d="m156.874 211.806h-24.737c28.124 0 50.923 22.799 50.923 50.922v46.318h24.737v-46.318c-.001-28.123-22.8-50.922-50.923-50.922z" fill="#ffd064"/><path d="m143.487 229.797c-23.54 0-42.622-19.083-42.622-42.622v-36.425c20.827-.396 39.191-3.383 51.04-13.225 9.29 9.54 20.648 14.052 34.204 13.225v36.425c0 23.539-19.082 42.622-42.622 42.622z" fill="#ffddce"/><path d="m186.109 150.75c-8.022.49-15.269-.906-21.779-4.092v40.517c0 19.775-13.469 36.4-31.733 41.213 3.477.916 7.125 1.409 10.89 1.409 23.54 0 42.622-19.083 42.622-42.622z" fill="#ffcbbe"/></g><g><path d="m423.573 386.733c-24.235 0-43.881-19.646-43.881-43.881v-43.881h87.762v43.881c-.001 24.235-19.647 43.881-43.881 43.881z" fill="#ffddce"/><path d="m445.439 298.972v43.881c0 20.433-13.967 37.604-32.874 42.488 3.517.908 7.206 1.393 11.007 1.393 24.235 0 43.881-19.646 43.881-43.881v-43.881z" fill="#ffcbbe"/><path d="m483.085 504.472h-118.36c-6.545 0-11.85-5.306-11.85-11.85v-68.707c0-27.085 21.956-49.041 49.041-49.041h43.313c27.085 0 49.041 21.956 49.041 49.041v69.373c0 6.177-5.008 11.184-11.185 11.184z" fill="#4a80aa"/><path d="m445.229 374.874h-26.817c27.084 0 49.041 21.956 49.041 49.041v80.558h15.632c6.177 0 11.185-5.007 11.185-11.185v-69.373c0-27.085-21.957-49.041-49.041-49.041z" fill="#407093"/><path d="m473.784 327.534c-33.475 13.639-66.949 13.639-100.423 0-9.453-3.852-15.684-12.991-15.684-23.199v-25.911c0-28.755 23.311-52.066 52.066-52.066h27.659c28.755 0 52.066 23.311 52.066 52.066v25.911c0 10.208-6.231 19.347-15.684 23.199z" fill="#e27d47"/><path d="m489.468 278.424c0-28.755-23.311-52.066-52.066-52.066h-27.659c-.34 0-.674.019-1.012.026 28.286.541 51.054 23.624 51.054 52.04v25.911c0 10.208-6.231 19.347-15.684 23.199-11.79 4.804-23.58 7.879-35.37 9.299 21.684 2.612 43.369-.463 65.053-9.299 9.453-3.852 15.684-12.991 15.684-23.199z" fill="#dd6938"/></g><path d="m313.102 426.978-23.345-13.478c-1.429-.825-2.309-2.35-2.309-4v-15.098c0-2.551-2.068-4.619-4.619-4.619h-161.656c-2.551 0-4.619 2.068-4.619 4.619v105.48c0 2.551 2.068 4.619 4.619 4.619h161.656c2.551 0 4.619-2.068 4.619-4.619v-47.424c0-1.65.88-3.175 2.309-4l23.346-13.479c3.079-1.779 3.079-6.223-.001-8.001z" fill="#ffe07d"/><path d="m313.102 426.978-23.345-13.478c-1.429-.825-2.309-2.35-2.309-4v-15.099c0-2.551-2.068-4.619-4.619-4.619h-25.093c2.551 0 4.619 2.068 4.619 4.619v6.877c0 6.737 3.594 12.963 9.429 16.332l4.124 2.381c8.458 4.883 8.458 17.091 0 21.974l-4.125 2.381c-5.835 3.369-9.429 9.594-9.429 16.332v39.203c0 2.551-2.068 4.619-4.619 4.619h25.093c2.551 0 4.619-2.068 4.619-4.619v-47.424c0-1.65.88-3.175 2.309-4l23.345-13.479c3.081-1.778 3.081-6.222.001-8z" fill="#ffd064"/><path d="m297.721 132.055 23.345-13.479c1.429-.825 2.309-2.35 2.309-4v-45.099c0-2.551 2.068-4.619 4.619-4.619h161.656c2.551 0 4.619 2.068 4.619 4.619v105.48c0 2.551-2.068 4.619-4.619 4.619h-161.655c-2.551 0-4.619-2.068-4.619-4.619v-17.424c0-1.65-.88-3.175-2.309-4l-23.346-13.479c-3.079-1.777-3.079-6.222 0-7.999z" fill="#ffe07d"/><path d="m489.651 64.858h-24.168c2.551 0 4.619 2.068 4.619 4.619v105.48c0 2.551-2.068 4.619-4.619 4.619h24.168c2.551 0 4.619-2.068 4.619-4.619v-105.479c0-2.551-2.068-4.62-4.619-4.62z" fill="#ffd064"/><g><path d="m239.244 316.546c4.143 0 7.5-3.357 7.5-7.5v-271.546c0-4.143-3.357-7.5-7.5-7.5h-191.514c-4.143 0-7.5 3.357-7.5 7.5v271.546c0 4.143 3.357 7.5 7.5 7.5zm-184.014-271.546h176.514v256.546h-16.448v-38.817c0-20.99-10.963-39.834-28.579-50.233 1.842-3.133 3.356-6.48 4.488-9.999 11.334-.493 20.404-9.865 20.404-21.319v-46.623c0-30.703-24.979-55.683-55.683-55.683h-8.872c2.179-3.153 1.637-7.502-1.359-10.01-3.178-2.655-7.907-2.234-10.565.94l-4.712 5.633-3.547-3.366c-3.006-2.853-7.751-2.726-10.603.278-1.376 1.449-2.059 3.305-2.06 5.157 0 1.274.326 2.545.967 3.684-22.993 6.852-39.81 28.176-39.81 53.365v46.623c0 11.454 9.07 20.826 20.404 21.319 1.133 3.519 2.646 6.866 4.488 9.999-17.616 10.399-28.579 29.243-28.579 50.233v38.817h-16.448zm35.135 136.178v-46.623c0-22.433 18.25-40.683 40.683-40.683h24.879c22.433 0 40.683 18.25 40.683 40.683v46.623c0 2.27-1.203 4.259-3 5.38v-35.808c0-2.068-.854-4.045-2.36-5.463-1.507-1.417-3.513-2.138-5.597-2.023-11.225.684-20.518-2.902-28.374-10.972-2.73-2.803-7.155-3.038-10.165-.537-8.923 7.411-23.663 11.063-46.391 11.496-4.086.078-7.357 3.412-7.357 7.499v35.808c-1.798-1.121-3.001-3.111-3.001-5.38zm18 5.997v-29.184c19.007-.991 32.709-4.434 42.963-10.827 7.97 6.516 17.103 10.201 27.281 11.012v28.999c0 19.366-15.756 35.122-35.122 35.122s-35.122-15.756-35.122-35.122zm-21.686 114.371v-38.817c0-16.357 8.957-30.963 23.182-38.418 8.899 8.066 20.698 12.987 33.626 12.987s24.728-4.921 33.626-12.987c14.225 7.455 23.182 22.062 23.182 38.418v38.817z"/><path d="m135.771 326.813c-4.143 0-7.5 3.357-7.5 7.5s3.357 7.5 7.5 7.5h15.434c4.143 0 7.5-3.357 7.5-7.5s-3.357-7.5-7.5-7.5z"/><path d="m466.239 371.438c11.148-16.655 8.271-32.31 8.714-36.303 14.696-5.799 22.015-17.811 22.015-30.8v-25.911c0-32.845-26.721-59.565-59.565-59.565h-27.659c-32.845 0-59.565 26.722-59.565 59.566v25.91c0 12.682 7.035 24.893 22.014 30.8.459 4.139-2.449 19.627 8.715 36.304-20.8 8.358-35.531 28.723-35.531 52.477v68.707c0 10.67 8.681 19.351 19.351 19.351h118.359c10.303 0 18.685-8.382 18.685-18.685v-69.373c-.002-23.755-14.733-44.12-35.533-52.478zm-101.061-67.103v-25.91c0-24.574 19.992-44.566 44.565-44.566h27.659c24.573 0 44.565 19.992 44.565 44.565v25.911c0 7.147-4.323 13.527-11.014 16.254-31.438 12.811-63.322 12.811-94.763 0-6.689-2.727-11.012-9.107-11.012-16.254zm22.013 35.852c12.1 3.365 24.239 5.049 36.381 5.049 12.138 0 24.28-1.684 36.381-5.049-.186 1.094 1.641 15.159-9.741 27.42-4.768-.419-49.762-.309-53.278 0-11.17-12.033-9.605-26.612-9.743-27.42zm99.579 153.101c0 2.031-1.653 3.685-3.685 3.685h-118.359c-2.399 0-4.351-1.951-4.351-4.351v-68.707c0-22.906 18.635-41.541 41.541-41.541h43.313c22.905 0 41.54 18.635 41.54 41.541v69.373z"/><path d="m358.828 116.766v10.903c0 4.143 3.357 7.5 7.5 7.5s7.5-3.357 7.5-7.5v-10.903c0-4.143-3.357-7.5-7.5-7.5s-7.5 3.357-7.5 7.5z"/><path d="m402.709 116.766v10.903c0 4.143 3.357 7.5 7.5 7.5s7.5-3.357 7.5-7.5v-10.903c0-4.143-3.357-7.5-7.5-7.5s-7.5 3.357-7.5 7.5z"/><path d="m454.09 135.169c4.143 0 7.5-3.357 7.5-7.5v-10.903c0-4.143-3.357-7.5-7.5-7.5s-7.5 3.357-7.5 7.5v10.903c0 4.143 3.357 7.5 7.5 7.5z"/><path d="m152.729 441.689v10.903c0 4.143 3.357 7.5 7.5 7.5s7.5-3.357 7.5-7.5v-10.903c0-4.143-3.357-7.5-7.5-7.5s-7.5 3.358-7.5 7.5z"/><path d="m204.109 434.189c-4.143 0-7.5 3.357-7.5 7.5v10.903c0 4.143 3.357 7.5 7.5 7.5s7.5-3.357 7.5-7.5v-10.903c0-4.142-3.357-7.5-7.5-7.5z"/><path d="m255.49 452.593v-10.903c0-4.143-3.357-7.5-7.5-7.5s-7.5 3.357-7.5 7.5v10.903c0 4.143 3.357 7.5 7.5 7.5s7.5-3.358 7.5-7.5z"/><path d="m316.853 420.483-21.905-12.647v-13.435c0-6.683-5.437-12.119-12.119-12.119h-161.656c-6.683 0-12.119 5.437-12.119 12.119v105.479c0 6.683 5.437 12.119 12.119 12.119h81.299c4.143 0 7.5-3.357 7.5-7.5s-3.357-7.5-7.5-7.5h-78.418v-99.718h155.894v12.219c0 4.314 2.321 8.336 6.06 10.495l19.023 10.983-19.024 10.984c-3.737 2.158-6.059 6.18-6.059 10.494v44.544h-47.489c-4.143 0-7.5 3.357-7.5 7.5s3.357 7.5 7.5 7.5h50.37c6.683 0 12.119-5.437 12.119-12.119v-45.761l21.906-12.646c3.737-2.159 6.059-6.181 6.059-10.497-.002-4.316-2.324-8.336-6.06-10.494z"/><path d="m489.651 57.358h-31.681c-4.143 0-7.5 3.357-7.5 7.5s3.357 7.5 7.5 7.5h28.799v99.718h-155.893v-14.543c0-4.316-2.322-8.338-6.06-10.495l-19.023-10.983 19.022-10.982c3.738-2.158 6.061-6.18 6.061-10.496v-42.219h97.107c4.143 0 7.5-3.357 7.5-7.5s-3.357-7.5-7.5-7.5h-99.988c-6.683 0-12.119 5.437-12.119 12.119v43.436l-21.902 12.646c-3.739 2.157-6.062 6.18-6.062 10.496s2.323 8.339 6.061 10.495l21.904 12.646v15.761c0 6.683 5.437 12.119 12.119 12.119h161.656c6.682 0 12.118-5.437 12.118-12.119v-105.479c0-6.683-5.437-12.12-12.119-12.12z"/><path d="m276.744 346.467v-326.258c0-11.144-9.066-20.209-20.21-20.209h-179.72c-4.143 0-7.5 3.357-7.5 7.5s3.357 7.5 7.5 7.5h179.72c2.873 0 5.21 2.337 5.21 5.209v326.258c0 2.872-2.337 5.209-5.21 5.209h-226.095c-2.872 0-5.209-2.337-5.209-5.209v-326.258c0-2.872 2.337-5.209 5.209-5.209h16.388c4.143 0 7.5-3.357 7.5-7.5s-3.357-7.5-7.5-7.5h-16.388c-11.143 0-20.209 9.065-20.209 20.209v326.258c0 11.144 9.065 20.209 20.209 20.209h226.095c11.144 0 20.21-9.066 20.21-20.209z"/></g></g></svg>